<svg xmlns="http://www.w3.org/2000/svg" viewBox="0 0 100 100" xml:space="preserve"><path fill="#fff" d="M67.844 28.592c2.936-1.285 4.993-4.212 4.993-7.622a8.326 8.326 0 1 0-8.327 8.328c.395 0 .774-.063 1.154-.115 3.437 9.215 14.189 42.456-7.591 47.234-20.494 4.496-35.228-16.325-21.695-35.014l7.517 2.793-3.866-17.399s-23.2 15.466-16.111 41.242c7.088 25.778 40.743 21.652 48.414 11.194 9.997-13.629 3.552-31.359-4.488-50.641zm-8.92-7.621c0-3.086 2.5-5.587 5.586-5.587a5.588 5.588 0 1 1 0 11.176 5.584 5.584 0 0 1-5.586-5.589z"/><path fill="#a0e4ec" d="M69.086 67.97c-1.976 4.101-5.413 7.218-11.013 8.446-20.494 4.496-35.228-16.325-21.695-35.014l7.517 2.793-3.866-17.399s-23.2 15.466-16.111 41.242c7.088 25.778 40.743 21.652 48.414 11.194.485-.659.897-1.336 1.306-2.015l-4.552-9.247z"/></svg>